<svg width="81" height="81" viewBox="0 0 81 81" fill="none" xmlns="http://www.w3.org/2000/svg">
<circle cx="40.4697" cy="40.8934" r="40" fill="#F3FBF8"/>
<g clip-path="url(#clip0_7966_54)">
<path d="M23.5067 32.5505H29.6862C30.0098 32.5505 30.2722 32.2882 30.2722 31.9645C30.2722 31.6409 30.0098 31.3786 29.6862 31.3786H23.5067C23.1831 31.3786 22.9208 31.6409 22.9208 31.9645C22.9208 32.2882 23.183 32.5505 23.5067 32.5505Z" fill="#09A66D"/>
<path d="M29.4745 35.3713H27.0334C26.7099 35.3713 26.4475 35.6336 26.4475 35.9573C26.4475 36.2809 26.7099 36.5432 27.0334 36.5432H29.4745C29.7981 36.5432 30.0605 36.2809 30.0605 35.9573C30.0605 35.6336 29.7981 35.3713 29.4745 35.3713Z" fill="#09A66D"/>
<path d="M21.0557 39.4346H27.0332C27.3568 39.4346 27.6191 39.1723 27.6191 38.8486C27.6191 38.525 27.3568 38.2627 27.0332 38.2627H21.0557C20.7321 38.2627 20.4697 38.525 20.4697 38.8486C20.4697 39.1723 20.7321 39.4346 21.0557 39.4346Z" fill="#09A66D"/>
<path d="M30.2722 49.8223C30.2722 49.4986 30.0098 49.2363 29.6862 49.2363H23.5067C23.1831 49.2363 22.9208 49.4986 22.9208 49.8223C22.9208 50.1459 23.1831 50.4082 23.5067 50.4082H29.6862C30.0098 50.4082 30.2722 50.1459 30.2722 49.8223Z" fill="#09A66D"/>
<path d="M29.4745 45.2437H27.0334C26.7099 45.2437 26.4475 45.5059 26.4475 45.8296C26.4475 46.1533 26.7099 46.4155 27.0334 46.4155H29.4745C29.7981 46.4155 30.0605 46.1533 30.0605 45.8296C30.0605 45.5059 29.7981 45.2437 29.4745 45.2437Z" fill="#09A66D"/>
<path d="M27.6191 42.9382C27.6191 42.6145 27.3568 42.3522 27.0332 42.3522H21.0557C20.7321 42.3522 20.4697 42.6145 20.4697 42.9382C20.4697 43.2618 20.7321 43.5241 21.0557 43.5241H27.0332C27.3568 43.5241 27.6191 43.2618 27.6191 42.9382Z" fill="#09A66D"/>
<path d="M45.4329 33.8489C45.7565 33.8489 46.0188 33.5866 46.0188 33.263V32.3686C46.0188 32.0449 45.7565 31.7827 45.4329 31.7827C45.1092 31.7827 44.8469 32.0449 44.8469 32.3686V33.263C44.8469 33.5866 45.1092 33.8489 45.4329 33.8489Z" fill="#09A66D"/>
<path d="M51.8755 34.4511C51.6466 34.2224 51.2757 34.2224 51.0468 34.4511L50.4144 35.0835C50.1856 35.3124 50.1856 35.6834 50.4144 35.9122C50.6434 36.141 51.0143 36.1409 51.2431 35.9122L51.8755 35.2798C52.1043 35.0509 52.1043 34.68 51.8755 34.4511Z" fill="#09A66D"/>
<path d="M53.0627 40.3075C52.7391 40.3075 52.4768 40.5698 52.4768 40.8934C52.4768 41.2171 52.7391 41.4794 53.0627 41.4794H53.957C54.2807 41.4794 54.543 41.2171 54.543 40.8934C54.543 40.5698 54.2807 40.3075 53.957 40.3075H53.0627Z" fill="#09A66D"/>
<path d="M51.2431 45.8746C51.0142 45.6458 50.6432 45.6458 50.4144 45.8746C50.1856 46.1035 50.1856 46.4744 50.4144 46.7032L51.0468 47.3357C51.2758 47.5645 51.6467 47.5644 51.8755 47.3357C52.1043 47.1068 52.1043 46.7358 51.8755 46.507L51.2431 45.8746Z" fill="#09A66D"/>
<path d="M44.8469 48.5239V49.4182C44.8469 49.7418 45.1092 50.0041 45.4329 50.0041C45.7565 50.0041 46.0188 49.7418 46.0188 49.4182V48.5239C46.0188 48.2002 45.7565 47.9379 45.4329 47.9379C45.1092 47.9379 44.8469 48.2003 44.8469 48.5239Z" fill="#09A66D"/>
<path d="M39.6231 45.8746L38.9907 46.507C38.7619 46.7359 38.7619 47.1068 38.9907 47.3357C39.2196 47.5645 39.5906 47.5644 39.8193 47.3357L40.4517 46.7032C40.6805 46.4743 40.6805 46.1034 40.4517 45.8746C40.223 45.6458 39.852 45.6458 39.6231 45.8746Z" fill="#09A66D"/>
<path d="M36.9078 40.3075C36.5842 40.3075 36.3219 40.5698 36.3219 40.8934C36.3219 41.2171 36.5842 41.4794 36.9078 41.4794H37.8022C38.1258 41.4794 38.3881 41.2171 38.3881 40.8934C38.3881 40.5698 38.1258 40.3075 37.8022 40.3075H36.9078Z" fill="#09A66D"/>
<path d="M40.4518 35.0835L39.8194 34.4511C39.5906 34.2224 39.2196 34.2224 38.9908 34.4511C38.762 34.68 38.762 35.0509 38.9908 35.2798L39.6233 35.9122C39.8522 36.141 40.2231 36.1409 40.4518 35.9122C40.6807 35.6834 40.6807 35.3124 40.4518 35.0835Z" fill="#09A66D"/>
<path d="M48.5836 40.8935C48.5836 40.5698 48.3214 40.3075 47.9977 40.3075H46.0188V35.9572C46.0188 35.6335 45.7565 35.3713 45.4329 35.3713C45.1092 35.3713 44.8469 35.6335 44.8469 35.9572V40.8935C44.8469 41.2171 45.1092 41.4794 45.4329 41.4794H47.9977C48.3213 41.4794 48.5836 41.2171 48.5836 40.8935Z" fill="#09A66D"/>
<path d="M56.5432 40.7967C56.8662 40.7771 57.1122 40.4994 57.0926 40.1764C56.7198 34.0277 51.5983 29.2112 45.4328 29.2112C38.9912 29.2112 33.7506 34.4519 33.7506 40.8935C33.7506 47.3351 38.9912 52.5757 45.4328 52.5757C51.2038 52.5757 56.1281 48.3474 56.9848 42.6416C57.0328 42.3216 56.8123 42.0232 56.4923 41.9751C56.173 41.9273 55.8739 42.1475 55.8258 42.4676C55.0563 47.5937 50.6301 51.4039 45.4328 51.4039C39.6374 51.4039 34.9225 46.689 34.9225 40.8936C34.9225 35.0982 39.6374 30.3832 45.4328 30.3832C50.9798 30.3832 55.5875 34.7161 55.9228 40.2475C55.9423 40.5703 56.2198 40.8155 56.5432 40.7967Z" fill="#09A66D"/>
<path d="M45.4332 25.8566C43.3722 25.8566 41.3529 26.2842 39.4943 27.0838H29.1561C28.8325 27.0838 28.5702 27.3461 28.5702 27.6698C28.5702 27.9934 28.8325 28.2557 29.1561 28.2557H37.29C36.1902 28.9635 35.1778 29.8173 34.2851 30.8029C34.0679 31.0426 34.0862 31.4132 34.326 31.6305C34.566 31.8477 34.9364 31.8294 35.1537 31.5895C37.7789 28.6909 41.5257 27.0285 45.4332 27.0285C53.0784 27.0285 59.2982 33.2483 59.2982 40.8934C59.2982 48.5385 53.0785 54.7584 45.4332 54.7584C37.7881 54.7584 31.5683 48.5386 31.5683 40.8934C31.5683 38.2162 32.3331 35.6178 33.7798 33.3789C33.9554 33.1071 33.8775 32.7444 33.6057 32.5688C33.3339 32.3933 32.9712 32.4711 32.7955 32.743C31.226 35.1717 30.3964 37.9901 30.3964 40.8934C30.3964 46.1876 33.1469 50.8511 37.2937 53.5312H29.1562C28.8326 53.5312 28.5703 53.7934 28.5703 54.1171C28.5703 54.4408 28.8326 54.703 29.1562 54.703H39.4863C41.3113 55.492 43.322 55.9302 45.4333 55.9302C53.7246 55.9302 60.4701 49.1848 60.4701 40.8934C60.4701 32.6021 53.7246 25.8566 45.4332 25.8566Z" fill="#09A66D"/>
</g>
<defs>
<clipPath id="clip0_7966_54">
<rect width="40" height="40" fill="white" transform="translate(20.4697 20.8934)"/>
</clipPath>
</defs>
</svg>
