<svg width="81" height="81" viewBox="0 0 81 81" fill="none" xmlns="http://www.w3.org/2000/svg">
<circle cx="40.4697" cy="40.8934" r="40" fill="#F3FBF8"/>
<g clip-path="url(#clip0_7966_52)">
<path d="M58.3468 33.2352H51.5636C50.3931 33.2352 49.4407 34.188 49.4407 35.3592V43.1666H46.9036C47.0446 42.654 47.0968 42.0494 47.0625 41.3458V41.3457C47.0075 38.3723 46.4679 35.8664 45.4588 33.8975C44.6752 32.3688 43.7607 31.4523 42.9761 30.9044C43.8971 29.9575 44.4296 28.6104 44.4296 27.0567C44.4296 24.2613 42.1996 21.9872 39.4588 21.9872C36.7179 21.9872 34.488 24.2613 34.488 27.0567C34.488 27.3804 34.7504 27.6427 35.0739 27.6427H35.4721C35.4354 27.8637 35.4159 28.0891 35.4159 28.3179C35.4159 30.2879 36.8236 31.9344 38.6847 32.3034C38.4896 33.0277 38.3926 33.8819 38.393 34.8522L36.9316 36.1091L33.3757 36.3967L29.2739 35.0408C28.898 34.9158 28.4719 34.7745 28.1022 35.0411C27.7379 35.304 27.7379 35.7642 27.7379 35.9154V38.965C27.7379 39.2887 28.0003 39.5509 28.3239 39.5509H29.0214L27.9515 43.2481C27.8616 43.5589 28.0407 43.8839 28.3515 43.9738C28.6625 44.0642 28.9873 43.8847 29.0773 43.5739L30.2415 39.5509H31.9073C29.8354 45.8691 31.0176 50.0864 32.8347 54.3544H31.7814L27.3945 49.4493L28.3221 46.2446C28.4121 45.9337 28.2331 45.6088 27.9222 45.5189C27.6114 45.429 27.2864 45.608 27.1964 45.9188L26.3092 48.9842C23.565 48.9384 21.1103 50.8305 20.4847 53.5526C20.4123 53.8679 20.6091 54.1823 20.9243 54.2548L21.7561 54.4462C21.5436 56.6534 22.9971 58.7358 25.2139 59.246C25.5505 59.3236 25.89 59.3619 26.2272 59.3619C27.0588 59.3619 27.8757 59.1287 28.5983 58.6759C29.4464 58.1444 30.0782 57.3632 30.4202 56.4399L31.0765 56.5909C31.2721 56.6362 31.4575 56.6591 31.6429 56.5593C31.8153 56.4665 31.9299 56.2989 31.9729 56.1098C32.0141 55.918 32.0455 55.723 32.0673 55.5263H44.3218C44.7137 57.9628 46.7868 59.7994 49.2626 59.7994C51.7385 59.7994 53.8116 57.9628 54.2035 55.5263H54.6507C54.6507 55.5263 54.7394 55.5273 54.7597 55.5273C54.9272 55.5273 55.1693 55.5087 55.368 55.3066C55.4675 55.2054 55.5842 55.0244 55.5752 54.7368C55.5587 54.1866 55.4761 53.6549 55.3352 53.1496C55.8019 50.3162 55.3529 48.5905 54.6871 47.2399C55.108 46.9641 55.3871 46.4887 55.3871 45.9487V44.3384H58.3467C59.5172 44.3384 60.4696 43.3855 60.4696 42.2143V35.3591C60.4697 34.188 59.5175 33.2352 58.3468 33.2352ZM27.9761 57.683C27.226 58.1531 26.3385 58.3026 25.4769 58.1042H25.4768C23.8911 57.7392 22.8331 56.2851 22.9102 54.7127L29.2659 56.1755C29.0029 56.7947 28.558 57.3184 27.9761 57.683ZM30.9079 55.3498L21.7935 53.2524C22.4968 51.3263 24.3896 50.0513 26.4586 50.161L30.9236 55.1533C30.9197 55.2191 30.9145 55.2846 30.9079 55.3498ZM39.7583 45.1392C39.5882 45.5878 39.5882 46.1409 39.5882 46.9064V49.1175H37.4427V46.0841C37.4427 42.6545 39.3144 42.0434 40.1544 41.9425H45.8989C45.8757 42.7209 45.7001 43.2741 45.3667 43.6253C44.9781 44.0345 44.3132 44.2339 43.3338 44.2348L41.2306 44.237C40.4806 44.2371 39.9853 44.5405 39.7583 45.1392ZM39.5882 50.2893V51.6884C39.5829 51.6884 39.5775 51.6884 39.5718 51.6884H35.4099C35.4567 51.2544 35.5918 50.9187 35.8138 50.6863C36.1439 50.3409 36.6089 50.2893 36.8568 50.2893H39.5882ZM45.873 40.7707H40.5443C40.3304 40.0973 40.1396 39.36 39.9827 38.6022L41.6028 37.5506C42.4871 36.9763 42.9472 36.1648 42.865 35.3241C42.7922 34.5789 42.2856 33.9132 41.5743 33.6283C40.9248 33.3681 40.2257 33.4498 39.6078 33.8449C39.6587 33.2844 39.7536 32.7841 39.8907 32.3594C40.1405 32.3337 40.3886 32.2848 40.6321 32.2132C41.128 32.098 41.5862 31.9145 41.9999 31.6712C43.1284 32.3454 45.6104 34.5323 45.873 40.7707ZM35.7028 26.4709C35.9791 24.5987 37.5582 23.1591 39.4588 23.1591C41.5535 23.1591 43.2577 24.9077 43.2577 27.0568C43.2577 28.8048 42.4195 30.2136 41.0679 30.8336V27.7505C41.0679 27.2167 40.8636 26.5619 39.8907 26.4733C39.873 26.4716 39.8553 26.4709 39.8375 26.4709H35.7028ZM36.5879 28.318C36.5879 28.0867 36.6142 27.8609 36.666 27.6427H39.8088C39.845 27.6466 39.8714 27.6509 39.8903 27.6547C39.8933 27.6764 39.896 27.7077 39.896 27.7505V31.1784C39.7564 31.1989 39.6159 31.2093 39.4755 31.2094C39.4742 31.2094 39.4729 31.2094 39.4716 31.2094C37.8813 31.2079 36.5879 29.9114 36.5879 28.318ZM35.8282 37.3742L37.2161 37.2619C37.3397 37.252 37.457 37.203 37.5511 37.1222L40.0558 34.9679L40.0562 34.9675C40.2984 34.7588 40.5569 34.6518 40.8086 34.6518C40.9207 34.6518 41.0314 34.673 41.1386 34.716C41.4482 34.84 41.6681 35.1234 41.6989 35.438C41.7375 35.8338 41.4768 36.2351 40.9648 36.5676L38.1738 38.3791H35.8284V37.3742H35.8282ZM33.352 37.5745L34.6564 37.4691V38.3793H33.1407C32.9442 38.3793 32.8963 38.216 32.8907 38.0791C32.8875 38.0014 32.8948 37.612 33.352 37.5745ZM31.9652 37.17C31.7887 37.4594 31.7063 37.7979 31.7198 38.127C31.7233 38.2123 31.7342 38.2944 31.7493 38.3744C31.7493 38.376 31.7484 38.3777 31.7487 38.3792H28.91V36.1548L31.9675 37.1655C31.9665 37.167 31.9661 37.1685 31.9652 37.17ZM33.1439 39.5511H38.3471C38.4604 39.5511 38.5712 39.5183 38.6661 39.4566L38.9314 39.2844C39.0589 39.8484 39.2043 40.3971 39.3625 40.9154C38.1675 41.2681 36.2707 42.408 36.2707 46.084V49.1762C35.8596 49.2592 35.3733 49.4509 34.9665 49.8766C34.5377 50.3254 34.2928 50.9334 34.234 51.6883H33.052C31.8609 48.2556 31.4079 44.6028 33.1439 39.5511ZM34.1097 54.3525C33.8932 53.8544 33.6844 53.3583 33.4879 52.8602H39.5718C40.3603 52.8602 40.76 52.5012 40.76 51.7934V49.7034V47.4923H45.385C45.7086 47.4923 45.9709 47.23 45.9709 46.9063C45.9709 46.5827 45.7086 46.3204 45.385 46.3204H40.7643C40.7718 45.9876 40.7931 45.7154 40.8541 45.5546C40.8837 45.4764 40.9093 45.4089 41.2311 45.4089L43.3349 45.4067C44.6525 45.4055 45.595 45.0867 46.2165 44.4322C46.2453 44.4019 46.2725 44.3701 46.2997 44.3384H50.0268H54.2154V45.9488C54.2154 46.1502 54.0457 46.3204 53.8447 46.3204H48.0115C47.6879 46.3204 47.4256 46.5827 47.4256 46.9063C47.4256 47.23 47.6879 47.4923 48.0115 47.4923H53.5004C53.9636 48.3519 54.3801 49.4215 54.3554 51.1114C53.1961 49.5012 51.3195 48.4658 49.1896 48.4658C47.4792 48.4658 45.8742 49.1367 44.6702 50.3551C43.6018 51.4361 42.9602 52.8391 42.8282 54.3544L34.1097 54.3525ZM49.2627 58.6277C47.431 58.6277 45.8861 57.308 45.5124 55.5265H53.013C52.6392 57.3078 51.0943 58.6277 49.2627 58.6277ZM53.6786 54.3546H44.8469H44.0051C44.2928 51.7052 46.5081 49.6377 49.1896 49.6377C51.5439 49.6377 53.5211 51.1901 54.1758 53.3633C54.1779 53.3702 54.18 53.377 54.1824 53.3838C54.275 53.6956 54.3404 54.0202 54.3757 54.3546H53.6786ZM59.2979 42.2144C59.2979 42.7394 58.8712 43.1666 58.3468 43.1666H50.6126V40.1407H59.2979V42.2144ZM59.2979 38.9688H50.6126V37.7227H59.2979V38.9688ZM59.2979 36.5508H50.6126V35.3592C50.6126 34.8341 51.0393 34.407 51.5636 34.407H58.3468C58.8712 34.407 59.2979 34.8342 59.2979 35.3592V36.5508Z" fill="#09A66D"/>
</g>
<defs>
<clipPath id="clip0_7966_52">
<rect width="40" height="40" fill="white" transform="translate(20.4697 20.8934)"/>
</clipPath>
</defs>
</svg>
